<svg width="33" height="46" viewBox="0 0 33 46" fill="none" xmlns="http://www.w3.org/2000/svg">
<g clip-path="url(#clip0)">
<path d="M31.1174 43.9362H30.575V42.1304C30.575 39.4263 29.5741 36.9671 27.9566 35.5194C29.5741 34.0717 30.575 31.6132 30.575 28.9084V27.1026H31.1174C31.4174 27.1026 31.6599 26.7606 31.6599 26.3374C31.6599 25.9143 31.4174 25.5723 31.1174 25.5723H30.575H30.0325L22.4382 25.5723H21.8958H21.3533C21.0533 25.5723 20.8109 25.9143 20.8109 26.3374C20.8109 26.7606 21.0533 27.1026 21.3533 27.1026H21.8958V28.9084C21.8958 31.6125 22.8966 34.0717 24.5142 35.5194C22.8966 36.9671 21.8958 39.4256 21.8958 42.1304V43.9362H21.3533C21.0533 43.9362 20.8109 44.2782 20.8109 44.7014C20.8109 45.1245 21.0533 45.4665 21.3533 45.4665H21.8958H22.4382H30.0325H30.575H31.1174C31.4174 45.4665 31.6599 45.1245 31.6599 44.7014C31.6599 44.2782 31.4174 43.9362 31.1174 43.9362ZM22.9807 28.9084V27.1026L29.4901 27.1026V28.9084C29.4901 31.448 28.3873 33.7274 26.671 34.7542H25.8003C24.0835 33.7274 22.9807 31.4487 22.9807 28.9084ZM22.9807 42.1304C22.9807 39.5908 24.0835 37.3114 25.7998 36.2846H26.6704C28.3873 37.3114 29.4901 39.5901 29.4901 42.1304V43.9362H22.9807V42.1304Z" fill="black"/>
<path d="M26.2353 24.8074V16.3906H21.3533H20.2684H16.4712H15.3863L11.5892 16.3906H10.5043H5.62219L5.62219 23.2771L5.62219 24.8074L5.62219 30.1636V31.6939L5.62219 38.5804H10.5043H11.5892H16.4712L16.4712 31.6939V30.1636V24.8074L20.2684 24.8074H21.3533L26.2353 24.8074ZM11.5892 17.921L15.3863 17.921L15.3863 23.2771L11.5892 23.2771V17.921ZM6.70709 17.921H10.5043V23.2771H6.70709L6.70709 17.921ZM6.70709 24.8074H10.5043L10.5043 30.1636H6.70709V24.8074ZM10.5043 37.0501H6.70709L6.70709 31.6939H10.5043V37.0501ZM15.3863 37.0501H11.5892V31.6939H15.3863L15.3863 37.0501ZM15.3863 30.1636H11.5892L11.5892 24.8074H15.3863V30.1636ZM20.2684 23.2771H16.4712V17.921H20.2684V23.2771ZM21.3533 17.921H25.1504V23.2771H21.3533V17.921Z" fill="black"/>
<path d="M18.6411 42.4063L2.90998 42.4063L2.90998 12.5649L28.9476 12.5649V21.7469C28.9476 22.17 29.1901 22.512 29.4901 22.512C29.79 22.512 30.0325 22.17 30.0325 21.7469V11.7997L30.0325 4.14809C30.0325 3.72495 29.79 3.38292 29.4901 3.38292L26.7778 3.38292V1.08743C26.7778 0.664294 26.5353 0.322266 26.2354 0.322266L22.4382 0.322266C22.1382 0.322266 21.8958 0.664294 21.8958 1.08743V3.38292L9.96184 3.38292V1.08743C9.96184 0.664294 9.71936 0.322266 9.41939 0.322266L5.62223 0.322266C5.32225 0.322266 5.07978 0.664294 5.07978 1.08743V3.38292L2.36752 3.38292C2.06755 3.38292 1.82507 3.72495 1.82507 4.14809L1.82507 11.7997L1.82507 43.1714C1.82507 43.5946 2.06755 43.9366 2.36752 43.9366L18.6411 43.9366C18.941 43.9366 19.1835 43.5946 19.1835 43.1714C19.1835 42.7483 18.941 42.4063 18.6411 42.4063ZM22.9807 1.85259L25.6929 1.85259V4.14809V6.44358L22.9807 6.44358V4.14809V1.85259ZM6.16468 1.85259L8.87694 1.85259V4.14809V6.44358L6.16468 6.44358V4.14809L6.16468 1.85259ZM2.90998 4.91325L5.07978 4.91325L5.07978 7.20874C5.07978 7.63188 5.32225 7.97391 5.62223 7.97391L9.41939 7.97391C9.71936 7.97391 9.96184 7.63188 9.96184 7.20874L9.96184 4.91325L21.8958 4.91325V7.20874C21.8958 7.63188 22.1382 7.97391 22.4382 7.97391L26.2354 7.97391C26.5353 7.97391 26.7778 7.63188 26.7778 7.20874V4.91325H28.9476V11.0346L2.90998 11.0346L2.90998 4.91325Z" fill="black"/>
</g>
<defs>
<clipPath id="clip0">
<rect x="0.740234" y="0.322266" width="32.0046" height="45.1447" rx="10" fill="white"/>
</clipPath>
</defs>
</svg>
