<svg width="118" height="97" viewBox="0 0 118 97" fill="none" xmlns="http://www.w3.org/2000/svg">
<path d="M113.908 90.371H110.424V11.0105C110.424 4.95577 105.214 0.0283203 98.8108 0.0283203H66.8753C60.4721 0.0283203 55.2624 4.95577 55.2624 11.0105V25.5848C54.3286 25.3969 53.3671 25.2649 52.3591 25.2649H20.4239C14.0207 25.2649 8.81093 29.3048 8.81093 34.274V90.3708H3.87551C1.95226 90.371 0.391602 91.7145 0.391602 93.3695C0.391602 95.0245 1.95226 96.368 3.87551 96.368H113.908C115.831 96.368 117.392 95.0247 117.392 93.3695C117.392 91.7142 115.831 90.371 113.908 90.371ZM18.1012 34.2743C18.1012 33.9804 18.9164 33.2609 20.4239 33.2609H52.3594C53.8666 33.2609 54.6821 33.9785 54.6821 34.2743V90.371H18.1012V34.2743ZM64.5529 11.0105C64.5529 9.24949 65.777 8.02408 66.8756 8.02408H98.8111C99.9098 8.02408 101.134 9.24949 101.134 11.0105V90.3713H64.5529V11.0105Z" fill="#010002"/>
<path d="M77.1996 11.4043H71.4558C69.6 11.4043 68.0928 12.6995 68.0928 14.2987V19.2422C68.0928 20.8394 69.5977 22.1366 71.4558 22.1366H77.1996C79.0554 22.1366 80.5626 20.8414 80.5626 19.2422V14.2987C80.5626 12.6995 79.0554 11.4043 77.1996 11.4043Z" fill="#010002"/>
<path d="M77.1996 25.397H71.4558C69.6 25.397 68.0928 26.6922 68.0928 28.2914V33.2349C68.0928 34.8321 69.5977 36.1293 71.4558 36.1293H77.1996C79.0554 36.1293 80.5626 34.8341 80.5626 33.2349V28.2914C80.5626 26.6922 79.0554 25.397 77.1996 25.397Z" fill="#010002"/>
<path d="M77.1996 39.3896H71.4558C69.6 39.3896 68.0928 40.6849 68.0928 42.2841V47.2275C68.0928 48.8248 69.5977 50.122 71.4558 50.122H77.1996C79.0554 50.122 80.5626 48.8267 80.5626 47.2275V42.2841C80.5626 40.6849 79.0554 39.3896 77.1996 39.3896Z" fill="#010002"/>
<path d="M94.2308 11.4043H88.4871C86.6312 11.4043 85.124 12.6995 85.124 14.2987V19.2422C85.124 20.8394 86.629 22.1366 88.4871 22.1366H94.2308C96.0866 22.1366 97.5939 20.8414 97.5939 19.2422V14.2987C97.5939 12.6995 96.0889 11.4043 94.2308 11.4043Z" fill="#010002"/>
<path d="M94.2308 25.397H88.4871C86.6312 25.397 85.124 26.6922 85.124 28.2914V33.2349C85.124 34.8321 86.629 36.1293 88.4871 36.1293H94.2308C96.0866 36.1293 97.5939 34.8341 97.5939 33.2349V28.2914C97.5939 26.6922 96.0889 25.397 94.2308 25.397Z" fill="#010002"/>
<path d="M94.2308 39.3896H88.4871C86.6312 39.3896 85.124 40.6849 85.124 42.2841V47.2275C85.124 48.8248 86.629 50.122 88.4871 50.122H94.2308C96.0866 50.122 97.5939 48.8267 97.5939 47.2275V42.2841C97.5939 40.6849 96.0889 39.3896 94.2308 39.3896Z" fill="#010002"/>
<path d="M77.1996 53.3823H71.4558C69.6 53.3823 68.0928 54.6776 68.0928 56.2768V61.2202C68.0928 62.8174 69.5977 64.1147 71.4558 64.1147H77.1996C79.0554 64.1147 80.5626 62.8194 80.5626 61.2202V56.2768C80.5626 54.6776 79.0554 53.3823 77.1996 53.3823Z" fill="#010002"/>
<path d="M77.1996 67.375H71.4558C69.6 67.375 68.0928 68.6702 68.0928 70.2694V75.2129C68.0928 76.8101 69.5977 78.1073 71.4558 78.1073H77.1996C79.0554 78.1073 80.5626 76.8121 80.5626 75.2129V70.2694C80.5626 68.6702 79.0554 67.375 77.1996 67.375Z" fill="#010002"/>
<path d="M94.2308 53.3823H88.4871C86.6312 53.3823 85.124 54.6776 85.124 56.2768V61.2202C85.124 62.8174 86.629 64.1147 88.4871 64.1147H94.2308C96.0866 64.1147 97.5939 62.8194 97.5939 61.2202V56.2768C97.5939 54.6776 96.0889 53.3823 94.2308 53.3823Z" fill="#010002"/>
<path d="M94.2308 67.375H88.4871C86.6312 67.375 85.124 68.6702 85.124 70.2694V75.2129C85.124 76.8101 86.629 78.1073 88.4871 78.1073H94.2308C96.0866 78.1073 97.5939 76.8121 97.5939 75.2129V70.2694C97.5939 68.6702 96.0889 67.375 94.2308 67.375Z" fill="#010002"/>
<path d="M30.7476 39.3896H25.0042C23.1483 39.3896 21.6411 40.6849 21.6411 42.2841V47.2275C21.6411 48.8248 23.1461 50.122 25.0042 50.122H30.7479C32.6037 50.122 34.111 48.8267 34.111 47.2275V42.2841C34.111 40.6849 32.6034 39.3896 30.7476 39.3896Z" fill="#010002"/>
<path d="M47.7792 39.3896H42.0354C40.1796 39.3896 38.6724 40.6849 38.6724 42.2841V47.2275C38.6724 48.8248 40.1773 50.122 42.0354 50.122H47.7792C49.635 50.122 51.1422 48.8267 51.1422 47.2275V42.2841C51.1422 40.6849 49.6373 39.3896 47.7792 39.3896Z" fill="#010002"/>
<path d="M30.7476 53.3823H25.0042C23.1483 53.3823 21.6411 54.6776 21.6411 56.2768V61.2202C21.6411 62.8174 23.1461 64.1147 25.0042 64.1147H30.7479C32.6037 64.1147 34.111 62.8194 34.111 61.2202V56.2768C34.111 54.6776 32.6034 53.3823 30.7476 53.3823Z" fill="#010002"/>
<path d="M30.7476 67.375H25.0042C23.1483 67.375 21.6411 68.6702 21.6411 70.2694V75.2129C21.6411 76.8101 23.1461 78.1073 25.0042 78.1073H30.7479C32.6037 78.1073 34.111 76.8121 34.111 75.2129V70.2694C34.111 68.6702 32.6034 67.375 30.7476 67.375Z" fill="#010002"/>
<path d="M47.7792 53.3823H42.0354C40.1796 53.3823 38.6724 54.6776 38.6724 56.2768V61.2202C38.6724 62.8174 40.1773 64.1147 42.0354 64.1147H47.7792C49.635 64.1147 51.1422 62.8194 51.1422 61.2202V56.2768C51.1422 54.6776 49.6373 53.3823 47.7792 53.3823Z" fill="#010002"/>
<path d="M47.7792 67.375H42.0354C40.1796 67.375 38.6724 68.6702 38.6724 70.2694V75.2129C38.6724 76.8101 40.1773 78.1073 42.0354 78.1073H47.7792C49.635 78.1073 51.1422 76.8121 51.1422 75.2129V70.2694C51.1422 68.6702 49.6373 67.375 47.7792 67.375Z" fill="#010002"/>
</svg>
