<svg width="102" height="114" viewBox="0 0 102 114" fill="none" xmlns="http://www.w3.org/2000/svg">
<path d="M100.656 38.361L76.5011 2.44477C75.8159 1.4255 74.5063 0.79248 73.0837 0.79248H28.1929C26.7705 0.79248 25.4609 1.4255 24.7755 2.44477L0.620739 38.361C0.16262 39.0428 0.0244025 39.8381 0.23308 40.5969L19.6798 111.311C20.0798 112.766 21.6604 113.8 23.4846 113.8H77.7915C79.6158 113.8 81.1962 112.766 81.5962 111.311L101.043 40.5969C101.252 39.8381 101.114 39.0428 100.656 38.361ZM74.6713 107.423H26.6053L23.876 97.4988H57.2765C59.4305 97.4988 61.1764 96.071 61.1764 94.3103C61.1764 92.5496 59.4303 91.1218 57.2765 91.1218H22.1226L8.16714 40.376L30.4989 7.16967H70.7771L77.451 17.0936H43.9997C41.8457 17.0936 40.0999 18.5214 40.0999 20.2821C40.0999 22.0427 41.846 23.4706 43.9997 23.4706H81.7399L93.1089 40.3758L74.6713 107.423Z" fill="black"/>
<path d="M72.9609 43.0199H62.5294V34.1914C62.5294 32.4308 60.7833 31.0029 58.6296 31.0029H42.6476C40.4936 31.0029 38.7478 32.4308 38.7478 34.1914V43.0199H28.3163C26.1623 43.0199 24.4165 44.4477 24.4165 46.2084V59.2753C24.4165 61.036 26.1626 62.4638 28.3163 62.4638H38.7478V80.4013C38.7478 82.162 40.4938 83.5898 42.6476 83.5898H58.6296C60.7836 83.5898 62.5294 82.162 62.5294 80.4013V62.4638H72.9609C75.1149 62.4638 76.8607 61.036 76.8607 59.2753V46.2084C76.8607 44.4475 75.1149 43.0199 72.9609 43.0199ZM69.0608 56.0866H58.6294C56.4754 56.0866 54.7295 57.5144 54.7295 59.2751V77.2126H46.5474V59.2751C46.5474 57.5144 44.8013 56.0866 42.6476 56.0866H32.2161V49.3969H42.6476C44.8016 49.3969 46.5474 47.969 46.5474 46.2084V37.3799H54.7295V46.2084C54.7295 47.969 56.4756 49.3969 58.6294 49.3969H69.0608V56.0866Z" fill="black"/>
<path d="M72.7978 93.6873C72.7511 93.4836 72.6731 93.2823 72.5756 93.0914C72.4781 92.8969 72.361 92.7119 72.2206 92.5398C72.0764 92.3643 71.9126 92.2019 71.7331 92.0551C71.5535 91.9085 71.3549 91.7746 71.1402 91.6598C70.9297 91.5452 70.7034 91.4461 70.4694 91.3665C70.2316 91.2868 69.9859 91.2265 69.7402 91.1848C69.2333 91.1018 68.7147 91.1018 68.2152 91.1848C67.9655 91.2265 67.7199 91.2868 67.4861 91.3665C67.2483 91.4461 67.022 91.5452 66.8115 91.6598C66.5968 91.7746 66.3982 91.9085 66.2186 92.0551C66.0391 92.2019 65.8755 92.3643 65.7351 92.5398C65.5948 92.7119 65.4738 92.8969 65.3764 93.0914C65.2789 93.2827 65.2047 93.4836 65.1542 93.6875C65.1037 93.8915 65.0762 94.102 65.0762 94.3093C65.0762 94.5163 65.1034 94.7269 65.1542 94.9341C65.2049 95.135 65.2789 95.3358 65.3764 95.5303C65.4738 95.7217 65.5948 95.9066 65.7351 96.0788C65.8755 96.2542 66.0394 96.4167 66.2186 96.5635C66.3982 96.7136 66.5968 96.844 66.8115 96.9621C67.022 97.0769 67.2483 97.1757 67.4861 97.2554C67.7201 97.3351 67.9658 97.3958 68.2152 97.4371C68.465 97.4786 68.7222 97.4978 68.9757 97.4978C70.0013 97.4978 71.0077 97.1594 71.7331 96.5633C71.9126 96.4165 72.0762 96.254 72.2166 96.0786C72.3569 95.9064 72.4779 95.7214 72.5753 95.5301C72.6728 95.3356 72.7508 95.1348 72.7975 94.9339C72.8483 94.7267 72.8755 94.5159 72.8755 94.3091C72.8758 94.1018 72.8485 93.891 72.7978 93.6873Z" fill="black"/>
<path d="M35.0585 26.8572C34.879 26.7074 34.6803 26.5767 34.4657 26.4586C34.2551 26.3441 34.0289 26.245 33.7911 26.1653C33.557 26.0856 33.3114 26.0253 33.0619 25.9836C32.5587 25.9006 32.0401 25.9006 31.541 25.9836C31.2913 26.0253 31.0456 26.0856 30.8078 26.1653C30.5737 26.245 30.3475 26.3441 30.1369 26.4586C29.9223 26.5765 29.7236 26.7074 29.5441 26.8572C29.3646 27.004 29.201 27.1665 29.0566 27.3386C28.9162 27.5143 28.7993 27.6993 28.7016 27.8902C28.6041 28.0811 28.5261 28.282 28.4794 28.4863C28.4286 28.6934 28.4014 28.9042 28.4014 29.1112C28.4014 29.3182 28.4286 29.529 28.4794 29.733C28.5261 29.9371 28.6041 30.138 28.7016 30.3291C28.799 30.5233 28.9162 30.7083 29.0566 30.8805C29.201 31.0559 29.3646 31.2188 29.5441 31.3654C29.7236 31.5122 29.9223 31.6459 30.1369 31.7605C30.3475 31.8752 30.5737 31.9741 30.8078 32.0538C31.0456 32.1335 31.2913 32.1942 31.541 32.2355C31.7907 32.2767 32.048 32.2992 32.3014 32.2992C32.5549 32.2992 32.8122 32.2769 33.0619 32.2355C33.3116 32.194 33.5573 32.1335 33.7911 32.0538C34.0289 31.9741 34.2551 31.8752 34.4657 31.7605C34.6803 31.6459 34.879 31.5122 35.0585 31.3654C35.2381 31.2186 35.4016 31.0557 35.542 30.8805C35.6824 30.7083 35.8033 30.5233 35.9008 30.3291C35.9983 30.1375 36.0725 29.9369 36.123 29.733C36.1737 29.5286 36.201 29.3182 36.201 29.1112C36.201 28.2698 35.7839 27.4503 35.0585 26.8572Z" fill="black"/>
</svg>
