<svg width="42" height="57" viewBox="0 0 42 57" fill="none" xmlns="http://www.w3.org/2000/svg">
<g clip-path="url(#clip0)">
<path d="M36.6331 9.93359L5.88814 9.93359C3.14811 9.93359 0.918701 12.9945 0.918701 16.7564L0.918701 41.0313C0.918701 44.7932 3.14811 47.8541 5.88814 47.8541L36.6331 47.8541C39.3731 47.8541 41.6025 44.7932 41.6025 41.0313L41.6025 16.7571C41.6031 12.9945 39.3736 9.93359 36.6331 9.93359ZM34.2048 14.3847L21.2606 25.8344L8.3164 14.3847L34.2048 14.3847ZM36.6331 43.4037L5.88814 43.4037C4.93553 43.4037 4.1607 42.3391 4.1607 41.032L4.1607 16.8833L20.2605 31.0971C20.2821 31.1157 20.3053 31.1283 20.3275 31.1453C20.3507 31.1632 20.3745 31.1802 20.3982 31.1965C20.5231 31.2848 20.6517 31.356 20.783 31.4028C20.7965 31.408 20.81 31.4102 20.8235 31.4146C20.9677 31.4614 21.1136 31.4903 21.2595 31.4903C21.2601 31.4903 21.2606 31.4903 21.2606 31.4903C21.2617 31.4903 21.2622 31.4903 21.2628 31.4903C21.4087 31.4903 21.5545 31.4621 21.6988 31.4146C21.7123 31.4102 21.7258 31.408 21.7393 31.4028C21.8706 31.356 21.9987 31.2848 22.1241 31.1965C22.1478 31.1802 22.1716 31.1632 22.1948 31.1453C22.217 31.1283 22.2402 31.1157 22.2618 31.0971L38.3616 16.8833L38.3616 41.0313C38.3611 42.3391 37.5857 43.4037 36.6331 43.4037Z" fill="black"/>
</g>
<defs>
<clipPath id="clip0">
<rect x="0.918701" y="0.96582" width="40.6838" height="55.8569" rx="11" fill="white"/>
</clipPath>
</defs>
</svg>
