<svg width="171" height="117" stroke-width="2" viewBox="0 0 171 117" fill="none" xmlns="http://www.w3.org/2000/svg">
<path d="M170.725 19.7751C169.507 15.588 166.453 11.6947 161.895 8.51374C161.886 8.50759 161.877 8.50116 161.868 8.49501C159.533 6.84316 155.664 4.5721 150.492 3.13298L150.374 3.10028C145.382 1.60022 140.025 0.839844 134.453 0.839844C126.212 0.839844 118.417 2.50651 111.911 5.66011C111.904 5.66318 111.875 5.67772 111.867 5.68135C106.273 8.41785 102.582 12.3282 102.125 12.8263C102.105 12.8481 102.085 12.8702 102.065 12.8923C99.1309 16.2631 97.5799 20.084 97.5799 23.942C97.5799 24.7432 97.6468 25.5542 97.7798 26.352C97.9034 27.0976 98.6155 27.7545 99.6752 28.102C100.346 28.322 101.048 28.5051 101.768 28.6499C104.641 34.1587 110.915 38.5644 118.891 41.042C115.472 42.1362 112.401 43.5829 109.745 45.3521C108.394 46.2517 108.463 47.6671 109.9 48.5133C111.335 49.3592 113.594 49.3159 114.945 48.4163C116.222 47.5659 117.619 46.8105 119.125 46.1553C121.286 49.991 126.856 52.801 133.19 52.801H133.723C140.068 52.801 145.632 49.7894 147.665 45.7144C155.203 48.6749 160.025 53.9494 160.025 59.5915V82.8218L127.559 96.0207C125.905 96.693 125.434 98.0779 126.508 99.1139C127.191 99.7739 128.336 100.133 129.505 100.133C130.171 100.133 130.844 100.017 131.445 99.7725L165.537 85.9124C166.551 85.5001 167.164 84.794 167.164 84.0364V59.5915C167.164 51.6716 160.107 44.5728 148.954 41.0306C159.516 37.728 166.985 31.0624 167.717 23.2991C168.724 22.7268 169.6 22.0545 170.3 21.2983C170.727 20.8388 170.878 20.2984 170.725 19.7751ZM133.723 48.3285H133.191C128.919 48.3285 125.31 45.7343 125.31 42.6634C125.31 42.6251 125.308 42.5871 125.305 42.5491C128.073 43.005 130.968 43.2463 133.936 43.2463C136.473 43.2463 138.949 43.0691 141.33 42.7333C141.051 45.7569 137.616 48.3285 133.723 48.3285ZM133.936 38.7735C123.172 38.7735 113.629 34.7564 109.448 28.7349C114.404 27.8566 118.196 25.2221 118.995 21.9774C121.125 22.1487 123.283 22.2351 125.448 22.2351C132.709 22.2351 139.703 21.2816 145.967 19.4556C147.581 22.929 152.709 25.4745 158.767 25.4745C159.209 25.4745 159.648 25.4606 160.083 25.4332C157.566 33.0313 146.766 38.7735 133.936 38.7735ZM158.767 21.002C155.354 21.002 152.578 19.263 152.578 17.125V15.8804C152.578 15.0666 151.872 14.3172 150.736 13.9233C149.598 13.5291 148.21 13.5534 147.11 13.9865C140.829 16.4568 133.339 17.7626 125.448 17.7626C122.362 17.7626 119.297 17.5588 116.337 17.1568C115.283 17.0134 114.181 17.177 113.34 17.6016C112.5 18.0262 112.011 18.6661 112.011 19.3423V20.699C112.011 22.8367 109.235 24.5761 105.823 24.5761C105.589 24.5761 105.358 24.568 105.129 24.552C105.076 24.547 105.023 24.5428 104.97 24.5394C104.89 24.5327 104.811 24.5246 104.732 24.516C104.723 24.3242 104.718 24.133 104.718 23.9423C104.718 20.8393 105.961 17.7676 108.312 15.0574C108.321 15.0465 108.331 15.0359 108.339 15.0278C108.369 14.9934 111.593 11.4915 116.255 9.20954C116.264 9.20479 116.276 9.19919 116.278 9.19808C121.523 6.65614 127.807 5.31263 134.453 5.31263C138.948 5.31263 143.266 5.92512 147.287 7.13305C147.357 7.15401 147.46 7.18337 147.594 7.22055C151.564 8.32532 154.612 10.1133 156.482 11.4303C156.502 11.4454 156.523 11.4602 156.544 11.4753C159.913 13.8171 162.267 16.6383 163.404 19.6812C162.236 20.5097 160.548 21.002 158.767 21.002ZM103.534 78.2212C111.623 75.2393 117.064 69.7268 117.064 63.4339C117.064 60.6021 115.961 57.9279 114.013 55.5716C113.943 55.4726 113.863 55.3784 113.774 55.289C109.14 49.9345 100.087 46.29 89.7002 46.29C79.3117 46.29 70.2568 49.9356 65.624 55.2926C65.5374 55.3798 65.4594 55.4718 65.3911 55.568C63.4399 57.9251 62.3374 60.6004 62.3374 63.4339C62.3374 69.7257 67.7755 75.237 75.8618 78.2193C65.8524 81.4612 59.5121 87.8964 59.5121 95.0182V103.175C59.5121 103.939 60.1355 104.651 61.1648 105.062L87.7839 115.679C88.3688 115.912 89.0345 116.029 89.7007 116.029C90.3628 116.029 91.025 115.913 91.6073 115.683L118.289 105.121C119.33 104.709 119.958 103.991 119.952 103.22L119.889 95.0076C119.835 87.869 113.501 81.455 103.534 78.2212ZM89.7002 50.7628C95.9134 50.7628 101.48 52.5268 105.193 55.2976C100.383 56.1612 95.1085 56.6115 89.7011 56.6115C84.292 56.6115 79.0168 56.1612 74.2073 55.2976C77.9205 52.5268 83.4875 50.7628 89.7002 50.7628ZM69.4759 63.4339C69.4759 61.9811 69.8681 60.5842 70.5901 59.2835C76.4802 60.4654 83.0164 61.0843 89.7011 61.0843C96.3841 61.0843 102.919 60.4654 108.81 59.2835C109.532 60.5842 109.925 61.9811 109.925 63.4339C109.925 70.4207 100.852 76.105 89.7002 76.105C78.5487 76.105 69.4759 70.4207 69.4759 63.4339ZM96.0361 80.114C95.5899 82.2297 92.6281 83.6598 89.9483 83.6598H89.5137C86.6755 83.6598 83.5237 82.1559 83.1154 80.076C85.225 80.4036 87.4309 80.5778 89.6998 80.5778C91.8799 80.5778 94.0019 80.4171 96.0361 80.114ZM89.7078 111.144L66.6507 101.948V95.0185C66.6507 90.1009 70.6164 85.6108 77.0357 82.9646C79.2662 86.1534 84.524 88.1326 89.5137 88.1326H89.9483C95.3351 88.1326 100.097 85.9362 102.154 82.8846C108.666 85.5152 112.712 90.0405 112.75 95.0291L112.803 102.002L89.7078 111.144ZM64.0686 51.1145C65.1091 50.0653 64.5951 48.6863 62.921 48.0344C61.8341 47.6112 60.707 47.2273 59.5505 46.8857C63.9615 45.4729 67.8634 43.4492 70.9608 40.9179C72.2365 41.1952 73.6058 41.3462 75.0301 41.3462C81.8893 41.3462 87.4698 37.8499 87.4698 33.5524V27.9947C87.4698 20.9299 83.1623 14.2389 75.3411 9.15475C67.5422 4.08541 57.0719 1.14064 45.8592 0.862767C45.8584 0.862767 45.857 0.862767 45.8561 0.862767C44.8817 0.839285 43.9746 0.833694 43.0826 0.847392C31.9199 1.01624 21.3904 3.84695 13.4335 8.81789C5.27586 13.9141 0.783203 20.7247 0.783203 27.9949V33.5527C0.783203 37.8502 6.36367 41.3465 13.2233 41.3465C14.6476 41.3465 16.0165 41.1958 17.2917 40.9185C20.7037 43.7067 25.0924 45.8791 30.0624 47.2975C19.0483 50.9266 12.2359 57.9517 12.2359 65.731V84.0369C12.2359 84.7945 12.8481 85.5007 13.8627 85.913L46.2448 99.0772C46.8449 99.3213 47.5182 99.4379 48.1843 99.4379C49.3529 99.4379 50.4987 99.0784 51.1818 98.4186C52.2549 97.3823 51.7842 95.9975 50.1306 95.3254L19.3749 82.8223V65.731C19.3749 60.5565 23.2206 55.8056 29.6631 52.7398C31.8726 56.7569 37.5463 59.7752 43.8197 59.7752H44.3525C51.1657 59.7752 56.6039 55.9113 58.5189 51.5945C58.7318 51.6722 58.9428 51.7518 59.1521 51.8332C60.827 52.4857 63.0281 52.1633 64.0686 51.1145ZM22.0516 19.8668C19.7439 22.3223 18.524 25.1329 18.524 27.9949V33.5527C18.524 34.6121 17.7281 35.5573 16.4908 36.1659C16.3846 36.2092 16.2833 36.2556 16.1869 36.3048C15.3405 36.664 14.3201 36.8737 13.2229 36.8737C10.2999 36.8737 7.9222 35.384 7.9222 33.5527V27.9947C7.9222 15.5791 23.4424 5.61873 43.2535 5.3185C43.9942 5.30703 44.7549 5.31207 45.5795 5.33191C65.0658 5.81581 80.3303 15.7703 80.3303 27.9947V33.5524C80.3303 35.3837 77.9521 36.8734 75.0292 36.8734C73.932 36.8734 72.9111 36.6635 72.0643 36.3043C71.9683 36.2553 71.8675 36.2092 71.7617 36.1659C70.5245 35.5573 69.728 34.6119 69.728 33.5524V27.9947C69.728 20.1008 60.342 13.2792 47.8952 12.1272C46.9167 12.0361 45.9222 12.2043 45.1489 12.5907C44.3757 12.977 43.8925 13.5467 43.8148 14.1645C43.6189 15.7278 43.1665 17.2692 42.4664 18.7651H25.1272C23.8631 18.7651 22.6928 19.1841 22.0516 19.8668ZM44.3525 55.3024H43.8197C39.7844 55.3024 35.8236 52.2332 35.8236 49.1059C35.8236 48.913 35.7839 48.7232 35.708 48.5412C38.4191 48.9731 41.2421 49.1982 44.1267 49.1982C46.8574 49.1982 49.5336 48.9963 52.1112 48.6086C51.8685 51.8606 47.9403 55.3024 44.3525 55.3024ZM44.1267 44.7254C35.8071 44.7254 28.1287 42.3523 23.0841 38.2986C24.7002 36.9833 25.6626 35.3367 25.6626 33.5524V27.9947C25.6626 26.3473 26.2221 24.7245 27.2921 23.2379H45.0427C46.537 23.2379 47.8729 22.655 48.3909 21.7767C49.2833 20.2643 49.9566 18.7041 50.4046 17.1152C57.5511 18.7449 62.5895 23.0816 62.5895 27.9947V33.5524C62.5895 35.3367 63.5519 36.9833 65.1684 38.2986C60.1243 42.3526 52.4463 44.7254 44.1267 44.7254Z" fill="black"/>
</svg>
