<svg width="111" height="107" viewBox="0 0 111 107" fill="none" xmlns="http://www.w3.org/2000/svg">
<path d="M41.5262 81.7833C41.5262 83.169 39.9789 84.2922 38.07 84.2922H24.9686C23.0597 84.2922 21.5124 83.169 21.5124 81.7833C21.5124 80.3977 23.0597 79.2744 24.9686 79.2744H38.07C39.9789 79.2744 41.5262 80.3977 41.5262 81.7833ZM63.6785 34.3586H76.7799C78.6888 34.3586 80.2361 33.2354 80.2361 31.8498C80.2361 30.4641 78.6888 29.3409 76.7799 29.3409H63.6785C61.7696 29.3409 60.2222 30.4641 60.2222 31.8498C60.2222 33.2354 61.7699 34.3586 63.6785 34.3586ZM63.6785 44.9852H76.7799C78.6888 44.9852 80.2361 43.862 80.2361 42.4763C80.2361 41.0907 78.6888 39.9675 76.7799 39.9675H63.6785C61.7696 39.9675 60.2222 41.0907 60.2222 42.4763C60.2222 43.862 61.7699 44.9852 63.6785 44.9852ZM48.6685 50.4834H24.9686C23.0597 50.4834 21.5124 51.6066 21.5124 52.9923C21.5124 54.3779 23.0597 55.5011 24.9686 55.5011H48.6685C50.5773 55.5011 52.1247 54.3779 52.1247 52.9923C52.1247 51.6066 50.5773 50.4834 48.6685 50.4834ZM48.4438 68.7003H24.9682C23.0594 68.7003 21.512 69.8235 21.512 71.2092C21.512 72.5948 23.0594 73.718 24.9682 73.718H48.4438C50.3527 73.718 51.9 72.5948 51.9 71.2092C51.9 69.8235 50.3527 68.7003 48.4438 68.7003ZM110.771 72.5697V88.9374C110.771 98.8088 99.7073 106.84 86.1085 106.84C79.6731 106.84 73.8055 105.041 69.4095 102.1H4.2272C2.31834 102.1 0.770996 100.977 0.770996 99.5915V2.53739C0.770996 1.15174 2.31834 0.0285177 4.2272 0.0285177H73.7937C74.6903 0.0202384 75.5775 0.272631 76.2431 0.746807C76.2435 0.747058 76.2438 0.747309 76.2442 0.74756C76.2463 0.749065 76.2487 0.75057 76.2507 0.752327C76.2521 0.75333 76.2539 0.754585 76.2552 0.755588C76.2563 0.756341 76.2573 0.757094 76.2583 0.757846C76.2608 0.759602 76.2635 0.761609 76.2659 0.763366L99.9659 17.9672C99.9679 17.9689 99.9703 17.9707 99.9728 17.9725C99.9731 17.9727 99.9738 17.9732 99.9745 17.9737C99.9762 17.975 99.9783 17.9765 99.9804 17.978C99.9807 17.9782 99.9811 17.9785 99.9814 17.979C100.466 18.335 100.781 18.7788 100.911 19.2495V19.2497C100.912 19.2547 100.914 19.2598 100.915 19.2645V19.2648C100.916 19.2673 100.916 19.2695 100.917 19.2721V19.2723C100.959 19.4334 100.98 19.5975 100.978 19.7623V69.3423C103.319 69.5471 105.64 69.8002 107.931 70.1015C109.575 70.3175 110.771 71.3567 110.771 72.5697ZM77.2783 17.2323H89.178L77.2783 8.5943V17.2323ZM61.4457 88.9376V72.5697C61.4457 71.3567 62.6412 70.3173 64.2857 70.101C71.3557 69.171 78.6977 68.6995 86.1082 68.6995C88.7729 68.6995 91.4287 68.7605 94.0658 68.882V22.2501H73.8221C71.9132 22.2501 70.3659 21.1269 70.3659 19.7412V5.04626H7.68341V97.0831H64.1495C62.4211 94.638 61.4457 91.8692 61.4457 88.9376ZM103.859 74.6927C98.0753 74.045 92.1178 73.7173 86.1078 73.7173C80.0982 73.7173 74.1407 74.045 68.3578 74.6927V88.9374C68.3578 96.042 76.3206 101.822 86.1078 101.822C95.8955 101.822 103.859 96.0417 103.859 88.9374V74.6927ZM82.6516 80.9175V85.2609H76.6689C74.7601 85.2609 73.2127 86.3841 73.2127 87.7697C73.2127 89.1554 74.7601 90.2786 76.6689 90.2786H82.6516V94.6222C82.6516 96.0079 84.199 97.1311 86.1078 97.1311C88.0167 97.1311 89.5641 96.0079 89.5641 94.6222V90.2786H95.5481C97.457 90.2786 99.0043 89.1554 99.0043 87.7697C99.0043 86.3841 97.457 85.2609 95.5481 85.2609H89.5641V80.9175C89.5641 79.5318 88.0167 78.4086 86.1078 78.4086C84.199 78.4086 82.6516 79.5318 82.6516 80.9175ZM76.7799 55.5011C78.6888 55.5011 80.2361 54.3779 80.2361 52.9923C80.2361 51.6066 78.6888 50.4834 76.7799 50.4834H63.6785C61.7696 50.4834 60.2222 51.6066 60.2222 52.9923C60.2222 54.3779 61.7696 55.5011 63.6785 55.5011H76.7799ZM48.6685 39.9675H24.9686C23.0597 39.9675 21.5124 41.0907 21.5124 42.4763C21.5124 43.862 23.0597 44.9852 24.9686 44.9852H48.6685C50.5773 44.9852 52.1247 43.862 52.1247 42.4763C52.1247 41.0907 50.5773 39.9675 48.6685 39.9675ZM48.6685 29.3409H24.9686C23.0597 29.3409 21.5124 30.4641 21.5124 31.8498C21.5124 33.2354 23.0597 34.3586 24.9686 34.3586H48.6685C50.5773 34.3586 52.1247 33.2354 52.1247 31.8498C52.1247 30.4641 50.5773 29.3409 48.6685 29.3409Z" fill="black"/>
</svg>
