<svg width="97" height="76" viewBox="0 0 97 76" fill="none" xmlns="http://www.w3.org/2000/svg">
<path d="M41.6678 26.3906C41.6696 27.0805 42.3861 27.6387 43.2709 27.6364L62.4709 27.5867C63.3557 27.5844 64.0694 27.0226 64.0676 26.3326C64.0658 25.6427 63.3492 25.0845 62.4644 25.0868L43.2645 25.1365C42.3797 25.1388 41.666 25.7006 41.6678 26.3906Z" fill="black"/>
<path d="M27.2905 35.1774L46.4904 35.1277C47.3752 35.1255 48.0889 34.5636 48.0871 33.8737C48.0853 33.1837 47.3688 32.6256 46.484 32.6279L27.284 32.6775C26.3992 32.6798 25.6855 33.2416 25.6873 33.9316C25.6891 34.6215 26.4057 35.1797 27.2905 35.1774Z" fill="black"/>
<path d="M27.2709 27.6774L36.8709 27.6526C37.7557 27.6503 38.4694 27.0884 38.4676 26.3985C38.4658 25.7085 37.7493 25.1504 36.8645 25.1527L27.2645 25.1775C26.3797 25.1798 25.666 25.7416 25.6678 26.4316C25.6696 27.1215 26.3861 27.6797 27.2709 27.6774Z" fill="black"/>
<path d="M46.4454 17.6279L27.2454 17.6775C26.3606 17.6798 25.647 18.2416 25.6487 18.9316C25.6505 19.6215 26.3671 20.1797 27.2519 20.1774L46.4518 20.1277C47.3367 20.1255 48.0503 19.5636 48.0485 18.8737C48.0468 18.1837 47.3302 17.6256 46.4454 17.6279Z" fill="black"/>
<path d="M52.9422 55.1111C52.0574 55.1134 51.3437 55.6752 51.3455 56.3652C51.3473 57.0551 52.0639 57.6133 52.9487 57.611L59.3486 57.5944C60.2334 57.5922 60.9471 57.0303 60.9453 56.3404C60.9435 55.6504 60.227 55.0923 59.3421 55.0945L52.9422 55.1111Z" fill="black"/>
<path d="M19.2065 2.69854L75.2064 2.55372C77.8527 2.54687 80.0107 4.22382 80.016 6.29129L80.0516 20.0413L75.2516 20.0537C74.6051 20.0554 74.0204 20.3619 73.7752 20.8288C73.5283 21.2968 73.6673 21.8341 74.126 22.1903L80.0691 26.8087L80.1246 48.2736L77.3988 50.4132C77.0987 50.6489 76.9315 50.9669 76.9324 51.2994C76.9332 51.6306 77.102 51.9478 77.4034 52.1819L80.14 54.3086L80.1581 61.291C80.1599 61.981 80.8765 62.5391 81.7613 62.5368C82.6461 62.5345 83.3597 61.9727 83.358 61.2827L83.3386 53.7814C83.3377 53.4502 83.1674 53.1331 82.8675 52.8989L80.7949 51.2894L82.8595 49.6678C83.1582 49.432 83.3269 49.114 83.326 48.7828L83.2678 26.2829C83.267 25.9517 83.0966 25.6334 82.7968 25.4004L79.1204 22.5436L81.658 22.5371C82.5428 22.5348 83.2565 21.9729 83.2547 21.283L83.2159 6.28302C83.207 2.83669 79.611 0.0422704 75.1999 0.0536779L19.2 0.198499C18.3152 0.200787 17.6015 0.762645 17.6033 1.45258C17.6051 2.14252 18.3217 2.70083 19.2065 2.69854Z" fill="black"/>
<path d="M67.3259 48.8243C67.3241 48.1344 66.6075 47.5762 65.7227 47.5785L46.5228 47.6282C45.638 47.6305 44.9243 48.1923 44.9261 48.8823C44.9279 49.5722 45.6444 50.1304 46.5292 50.1281L65.7292 50.0784C66.614 50.0761 67.3277 49.5143 67.3259 48.8243Z" fill="black"/>
<path d="M27.3486 57.6774L46.5485 57.6277C47.4333 57.6255 48.147 57.0636 48.1452 56.3737C48.1434 55.6837 47.4269 55.1256 46.5421 55.1279L27.3421 55.1775C26.4573 55.1798 25.7436 55.7416 25.7454 56.4316C25.7472 57.1215 26.4638 57.6797 27.3486 57.6774Z" fill="black"/>
<path d="M65.6841 32.5785L52.8841 32.6116C51.9993 32.6139 51.2856 33.1757 51.2874 33.8657C51.2892 34.5556 52.0058 35.1138 52.8906 35.1115L65.6906 35.0784C66.5754 35.0761 67.2891 34.5142 67.2873 33.8243C67.2855 33.1344 66.5689 32.5762 65.6841 32.5785Z" fill="black"/>
<path d="M62.5096 42.5866C63.3944 42.5844 64.1081 42.0225 64.1063 41.3326C64.1045 40.6426 63.3879 40.0845 62.5031 40.0868L52.9032 40.1116C52.0183 40.1139 51.3047 40.6757 51.3065 41.3657C51.3082 42.0556 52.0248 42.6138 52.9096 42.6115L62.5096 42.5866Z" fill="black"/>
<path d="M94.5678 65.0037L68.9678 65.0699C68.5422 65.071 68.1362 65.2033 67.8376 65.439L67.3698 65.8064L66.9001 65.4414C66.5987 65.2072 66.1936 65.077 65.7679 65.0781L27.3681 65.1774C26.4833 65.1797 25.7696 65.7416 25.7714 66.4315L25.7778 68.9316C25.7832 70.999 23.6339 72.6871 20.9875 72.694C18.3412 72.7008 16.1832 71.0239 16.1779 68.9564L16.1598 61.9739L18.8854 59.8332C19.5098 59.3429 19.5078 58.5528 18.8808 58.0657L16.1442 55.9391L16.0162 6.4567C16.0071 3.01037 12.4111 0.21595 8.00004 0.227358C3.58874 0.238766 0.00725065 3.05175 0.0161632 6.49807L0.0743502 28.998C0.0752067 29.3292 0.244027 29.6463 0.545384 29.8805L2.61843 31.4915L0.553744 33.113C0.253599 33.3475 0.086424 33.6667 0.0872805 33.9979L0.126072 48.9979C0.127856 49.6878 0.844427 50.246 1.72924 50.2437L8.12915 50.2271C9.01396 50.2249 9.72764 49.663 9.72585 48.9731C9.72407 48.2831 9.0075 47.725 8.12269 47.7272L3.3227 47.7397L3.28848 34.5072L6.01408 32.3664C6.6385 31.8762 6.63646 31.086 6.00951 30.599L3.27287 28.471L3.21603 6.4898C3.21068 4.42233 5.35995 2.73424 8.00631 2.7274C10.6527 2.72056 12.8106 4.3975 12.816 6.46497L12.9453 56.4648C12.9462 56.796 13.115 57.1131 13.4163 57.3473L15.4894 58.9582L13.4249 60.5797C13.1247 60.8143 12.9576 61.1335 12.9584 61.4647L12.9778 68.9647C12.9867 72.4108 16.5827 75.2054 20.994 75.194C25.4051 75.1826 28.9868 72.3696 28.9779 68.9233L28.9747 67.6733L65.1122 67.5799L66.2456 68.4607C66.8726 68.9479 67.8838 68.9453 68.508 68.4549L69.6369 67.5682L92.9744 67.5078L92.9776 68.7578C92.983 70.8253 90.8337 72.5133 88.1873 72.5202L30.5875 72.6691C29.7027 72.6714 28.989 73.2333 28.9908 73.9232C28.9926 74.6132 29.7092 75.1713 30.594 75.169L88.1938 75.0201C92.6049 75.0088 96.1864 72.1958 96.1775 68.7495L96.171 66.2495C96.1692 65.5595 95.4527 65.0014 94.5678 65.0037Z" fill="black"/>
<path d="M27.31 42.6774L36.91 42.6526C37.7948 42.6503 38.5085 42.0884 38.5067 41.3985C38.5049 40.7085 37.7883 40.1504 36.9035 40.1527L27.3035 40.1775C26.4187 40.1798 25.7051 40.7416 25.7068 41.4316C25.7086 42.1215 26.4252 42.6797 27.31 42.6774Z" fill="black"/>
<path d="M27.3295 50.1774L30.5296 50.1691C31.4144 50.1668 32.1281 49.605 32.1263 48.915C32.1245 48.2251 31.4079 47.6669 30.5231 47.6692L27.3231 47.6775C26.4383 47.6798 25.7246 48.2416 25.7264 48.9316C25.728 49.6215 26.4447 50.1797 27.3295 50.1774Z" fill="black"/>
<path d="M36.9227 47.6526C36.0379 47.6549 35.3242 48.2167 35.326 48.9067C35.3278 49.5966 36.0443 50.1548 36.9292 50.1525L40.1292 50.1442C41.014 50.1419 41.7277 49.5801 41.7259 48.8901C41.7241 48.2002 41.0075 47.642 40.1227 47.6443L36.9227 47.6526Z" fill="black"/>
<path d="M46.5036 40.1277L43.3035 40.136C42.4187 40.1383 41.7051 40.7001 41.7068 41.3901C41.7086 42.08 42.4252 42.6382 43.31 42.6359L46.5101 42.6276C47.3949 42.6253 48.1085 42.0635 48.1068 41.3735C48.105 40.6836 47.3884 40.1254 46.5036 40.1277Z" fill="black"/>
</svg>
