<svg width="55" height="77" viewBox="0 0 55 77" fill="none" xmlns="http://www.w3.org/2000/svg">
<g clip-path="url(#clip0)">
<path d="M35.1398 44.9283C34.4482 44.3712 33.7311 44.1952 33.1214 44.434C32.6635 44.613 32.2903 45.0216 32.0392 45.6169C31.4853 46.5512 30.7986 47.6415 30.6331 47.8106C29.347 49.0379 28.3266 48.8926 27.2184 47.3293L20.9878 38.5407C19.8785 36.9759 19.7765 35.5351 20.6455 33.7263C20.767 33.4891 21.54 32.5211 22.2018 31.7407C22.6239 31.3856 22.9135 30.86 23.0405 30.2134C23.2092 29.3541 23.0844 28.3433 22.6862 27.3586C22.5924 27.1321 20.3597 21.7958 18.3005 20.2602C17.2541 19.4804 15.9924 19.7475 15.1565 20.9274L13.7803 22.8686C9.7656 28.5323 10.5088 35.5672 15.9295 43.2128L23.9062 54.4653C26.3684 57.9391 28.7541 60.0708 30.995 60.8016C31.5895 60.9952 32.1721 61.0923 32.7438 61.0923C34.7601 61.0923 36.6327 59.8887 38.3289 57.4961L39.7051 55.5548C40.541 54.3757 40.7314 52.5937 40.1781 51.12C39.0889 48.2162 35.3064 45.0652 35.1398 44.9283ZM38.9381 54.4721L37.5619 56.4134C33.9991 61.439 29.6622 60.4205 24.6732 53.3825L16.6965 42.1301C11.7076 35.0936 10.9845 28.9769 14.5473 23.9498L15.9235 22.0085C16.2305 21.5755 16.6357 21.349 17.0464 21.349C17.2997 21.349 17.5557 21.4347 17.7928 21.6122C19.5796 22.9459 21.7288 28.0809 21.7467 28.1245C21.9903 28.7267 22.083 29.3549 21.9946 29.8048C21.9404 30.0803 21.8194 30.2899 21.6236 30.4445L21.5422 30.5241C21.0795 31.0689 19.9783 32.3865 19.7478 32.8662C19.4158 33.5579 19.1956 34.2374 19.08 34.9054C18.6943 33.8204 18.383 32.564 18.2805 31.1706C18.249 30.7505 17.9837 30.4514 17.6843 30.4881C17.3865 30.5325 17.1701 30.9082 17.2004 31.329C17.5921 36.6492 20.5257 40.1123 20.6499 40.2569C20.6634 40.273 20.6797 40.2784 20.6938 40.2921L26.4503 48.412C26.4747 48.4465 26.4997 48.4763 26.5241 48.5092C26.5431 48.549 26.5555 48.5926 26.5805 48.6278C26.683 48.7709 29.1322 52.1223 32.8724 52.6702C32.8914 52.6725 32.9104 52.674 32.9288 52.674C33.2033 52.674 33.4387 52.3809 33.468 51.9884C33.4989 51.5676 33.2819 51.1919 32.9841 51.1475C31.8368 50.9799 30.8208 50.5055 29.9741 49.9554C30.3896 49.7794 30.8122 49.4871 31.2401 49.0777C31.5803 48.7518 32.5144 47.2 32.9 46.5473L32.9565 46.4318C33.066 46.1571 33.2147 45.9857 33.41 45.9084C33.7273 45.7868 34.1737 45.9138 34.5952 46.2528C35.6145 47.096 38.432 49.7419 39.2174 51.8354C39.5478 52.7123 39.435 53.7713 38.9381 54.4721Z" fill="black"/>
<path d="M26.076 15.9307C25.776 15.9307 25.5336 16.2727 25.5336 16.6958C25.5336 17.119 25.776 17.461 26.076 17.461C35.2391 17.461 42.694 27.9766 42.694 40.9018C42.694 41.3249 42.9365 41.6669 43.2365 41.6669C43.5364 41.6669 43.7789 41.3249 43.7789 40.9018C43.7789 27.1327 35.8374 15.9307 26.076 15.9307Z" fill="black"/>
<path d="M26.076 22.8399C33.1366 22.8399 38.88 30.9422 38.88 40.9008C38.88 41.324 39.1225 41.666 39.4225 41.666C39.7225 41.666 39.9649 41.324 39.9649 40.9008C39.9649 30.0982 33.7343 21.3096 26.076 21.3096C25.776 21.3096 25.5336 21.6516 25.5336 22.0747C25.5336 22.4979 25.776 22.8399 26.076 22.8399Z" fill="black"/>
<path d="M26.076 28.2188C31.034 28.2188 35.0671 33.9086 35.0671 40.9014C35.0671 41.3245 35.3096 41.6666 35.6096 41.6666C35.9096 41.6666 36.152 41.3245 36.152 40.9014C36.152 33.0646 31.6318 26.6885 26.076 26.6885C25.776 26.6885 25.5336 27.0305 25.5336 27.4536C25.5336 27.8768 25.776 28.2188 26.076 28.2188Z" fill="black"/>
</g>
<defs>
<clipPath id="clip0">
<rect x="11.2335" y="15.5576" width="32.5454" height="45.9075" rx="10" fill="white"/>
</clipPath>
</defs>
</svg>
