<svg width="33" height="47" viewBox="0 0 33 47" fill="none" xmlns="http://www.w3.org/2000/svg">
<g clip-path="url(#clip0)">
<path d="M24.1398 29.9283C23.4482 29.3712 22.7311 29.1952 22.1214 29.434C21.6635 29.613 21.2903 30.0216 21.0392 30.6169C20.4853 31.5512 19.7986 32.6415 19.6331 32.8106C18.347 34.0379 17.3266 33.8926 16.2184 32.3293L9.98783 23.5407C8.87851 21.9759 8.77653 20.5351 9.64554 18.7263C9.76705 18.4891 10.54 17.5211 11.2018 16.7407C11.6239 16.3856 11.9135 15.86 12.0405 15.2134C12.2092 14.3541 12.0844 13.3433 11.6862 12.3586C11.5924 12.1321 9.35967 6.79583 7.30052 5.26015C6.25414 4.48045 4.9924 4.74749 4.15648 5.92737L2.78028 7.86859C-1.2344 13.5323 -0.49124 20.5672 4.92947 28.2128L12.9062 39.4653C15.3684 42.9391 17.7541 45.0708 19.995 45.8016C20.5895 45.9952 21.1721 46.0923 21.7438 46.0923C23.7601 46.0923 25.6327 44.8887 27.3289 42.4961L28.7051 40.5548C29.541 39.3757 29.7314 37.5937 29.1781 36.12C28.0889 33.2162 24.3064 30.0652 24.1398 29.9283ZM27.9381 39.4721L26.5619 41.4134C22.9991 46.439 18.6622 45.4205 13.6732 38.3825L5.6965 27.1301C0.707577 20.0936 -0.0155095 13.9769 3.54731 8.94977L4.92351 7.00855C5.23053 6.57547 5.63574 6.34898 6.04638 6.34898C6.2997 6.34898 6.55574 6.43468 6.79279 6.61219C8.57962 7.94587 10.7288 13.0809 10.7467 13.1245C10.9903 13.7267 11.083 14.3549 10.9946 14.8048C10.9404 15.0803 10.8194 15.2899 10.6236 15.4445L10.5422 15.5241C10.0795 16.0689 8.97833 17.3865 8.74778 17.8662C8.4158 18.5579 8.19557 19.2374 8.08003 19.9054C7.69434 18.8204 7.38298 17.564 7.28045 16.1706C7.24899 15.7505 6.98373 15.4514 6.6843 15.4881C6.3865 15.5325 6.17006 15.9082 6.20043 16.329C6.59208 21.6492 9.52566 25.1123 9.64988 25.2569C9.66344 25.273 9.67971 25.2784 9.69382 25.2921L15.4503 33.412C15.4747 33.4465 15.4997 33.4763 15.5241 33.5092C15.5431 33.549 15.5555 33.5926 15.5805 33.6278C15.683 33.7709 18.1322 37.1223 21.8724 37.6702C21.8914 37.6725 21.9104 37.674 21.9288 37.674C22.2033 37.674 22.4387 37.3809 22.468 36.9884C22.4989 36.5676 22.2819 36.1919 21.9841 36.1475C20.8368 35.9799 19.8208 35.5055 18.9741 34.9554C19.3896 34.7794 19.8122 34.4871 20.2401 34.0777C20.5803 33.7518 21.5144 32.2 21.9 31.5473L21.9565 31.4318C22.066 31.1571 22.2147 30.9857 22.41 30.9084C22.7273 30.7868 23.1737 30.9138 23.5952 31.2528C24.6145 32.096 27.432 34.7419 28.2174 36.8354C28.5478 37.7123 28.435 38.7713 27.9381 39.4721Z" fill="black"/>
<path d="M15.076 0.930664C14.776 0.930664 14.5336 1.27269 14.5336 1.69583C14.5336 2.11896 14.776 2.46099 15.076 2.46099C24.2391 2.46099 31.694 12.9766 31.694 25.9018C31.694 26.3249 31.9365 26.6669 32.2365 26.6669C32.5364 26.6669 32.7789 26.3249 32.7789 25.9018C32.7789 12.1327 24.8374 0.930664 15.076 0.930664Z" fill="black"/>
<path d="M15.076 7.8399C22.1366 7.8399 27.88 15.9422 27.88 25.9008C27.88 26.324 28.1225 26.666 28.4225 26.666C28.7225 26.666 28.9649 26.324 28.9649 25.9008C28.9649 15.0982 22.7343 6.30957 15.076 6.30957C14.776 6.30957 14.5336 6.6516 14.5336 7.07473C14.5336 7.49787 14.776 7.8399 15.076 7.8399Z" fill="black"/>
<path d="M15.076 13.2188C20.034 13.2188 24.0671 18.9086 24.0671 25.9014C24.0671 26.3245 24.3096 26.6666 24.6096 26.6666C24.9096 26.6666 25.152 26.3245 25.152 25.9014C25.152 18.0646 20.6318 11.6885 15.076 11.6885C14.776 11.6885 14.5336 12.0305 14.5336 12.4536C14.5336 12.8768 14.776 13.2188 15.076 13.2188Z" fill="black"/>
</g>
<defs>
<clipPath id="clip0">
<rect x="0.233521" y="0.557617" width="32.5454" height="45.9075" rx="10" fill="white"/>
</clipPath>
</defs>
</svg>
