<svg width="62" height="58" viewBox="0 0 62 58" fill="none" xmlns="http://www.w3.org/2000/svg">
<path d="M59.2585 19.8272H54.6732L57.9157 16.7932C58.9861 15.792 58.9859 14.1684 57.9157 13.1668L47.9251 3.82062C47.4114 3.34004 46.714 3.06958 45.9871 3.06958C45.2603 3.06958 44.5626 3.34004 44.0485 3.82101L40.8067 6.85388V2.56459C40.8067 1.14843 39.5797 0 38.0654 0H23.9371C22.4228 0 21.1958 1.14843 21.1958 2.56459V4.64099C20.168 4.30374 19.0815 3.96552 17.9304 3.62456C12.1962 1.92564 7.10237 0.829152 6.88778 0.783457C6.02859 0.598919 5.12639 0.813139 4.46466 1.35855C3.80273 1.90396 3.46143 2.71398 3.54848 3.53493C3.56956 3.73587 4.07911 8.50964 5.15519 13.9446C5.58834 16.1304 6.04445 18.089 6.52707 19.8274H2.74397C1.23015 19.8274 0.00292969 20.975 0.00292969 22.3912V35.6092C0.00292969 37.0254 1.23015 38.1734 2.74397 38.1734H7.32928L4.08683 41.207C3.0168 42.2086 3.0168 43.8318 4.08683 44.833L14.0772 54.1792C14.5909 54.6602 15.2883 54.9306 16.0152 54.9306C16.7423 54.9306 17.4397 54.6602 17.9536 54.1796L21.1958 51.1463V55.436C21.1958 56.8518 22.4228 58.0002 23.9371 58.0002H38.0654C39.5797 58.0002 40.8067 56.8518 40.8067 55.436V51.1459L44.0487 54.1792C44.5626 54.6598 45.2603 54.9302 45.9871 54.9302C46.714 54.9302 47.4114 54.6598 47.9251 54.1792L57.9157 44.833C58.9859 43.8318 58.9861 42.2086 57.9157 41.207L54.6732 38.1734H59.2585C60.7724 38.1734 61.9996 37.0254 61.9996 35.6092V22.3912C61.9996 20.9748 60.7724 19.8272 59.2585 19.8272ZM29.2476 14.0837C30.9188 15.8339 31.7479 18.0701 31.5826 20.381C31.4824 21.7823 31.0213 23.1096 30.2517 24.2786L24.6658 19.0888C23.5916 18.0912 21.8563 18.0964 20.7892 19.1012C19.7225 20.1061 19.7286 21.7298 20.8024 22.7279L26.1239 27.6719C24.8671 28.2093 23.4879 28.495 22.0774 28.495C19.2971 28.495 16.6556 27.3981 14.8299 25.4858C12.441 22.9823 10.4661 13.7499 9.45765 6.65899C17.0266 8.52019 26.8397 11.5626 29.2476 14.0837ZM36.471 23.7308C37.9602 25.0909 38.8568 26.983 38.8568 28.9998C38.8568 29.9698 38.6528 30.8954 38.2865 31.7441L34.2061 27.9529C35.2225 26.6758 35.9865 25.2516 36.471 23.7308ZM34.5873 35.5354C33.5114 36.0544 32.2928 36.3489 31.0013 36.3489C28.4721 36.3489 26.1648 35.2261 24.7107 33.4082C26.6548 33.0897 28.5122 32.4201 30.1773 31.4382L34.5873 35.5354ZM56.5173 33.0448H51.9318C50.7555 33.0448 49.7101 33.7466 49.3346 34.7894C49.0607 35.5477 48.7263 36.302 48.3393 37.0312C47.8161 38.0176 48.0243 39.2056 48.8563 39.984L52.1011 43.0196L45.9871 48.7395L42.7428 45.7043C41.9107 44.9259 40.6405 44.7314 39.5861 45.2202C38.8069 45.5819 37.9999 45.8953 37.1891 46.1517C36.0748 46.5034 35.3244 47.481 35.3244 48.5812V52.8716H26.6781V48.5812C26.6781 47.4808 25.9277 46.5032 24.8134 46.1517C24.0024 45.8953 23.1956 45.5819 22.4164 45.2202C21.362 44.7308 20.0914 44.9261 19.2599 45.7043L16.0152 48.7399L9.90144 43.02L13.1462 39.984C13.978 39.2056 14.1862 38.0176 13.6635 37.0312C13.2767 36.3028 12.942 35.5479 12.6677 34.789C12.2918 33.7466 11.2466 33.0448 10.0709 33.0448H5.48501V24.9552H8.2987C9.0554 26.6746 9.86721 27.9855 10.7408 28.9008C12.7892 31.0469 15.4877 32.5343 18.4454 33.2102C20.3421 38.1673 25.3449 41.4775 31.0011 41.4775C38.3552 41.4775 44.3387 35.8801 44.3387 29C44.3387 24.2518 41.411 19.9108 36.9303 17.8234C36.5201 15.1887 35.292 12.7157 33.3363 10.6673C32.0623 9.33274 29.8594 8.00622 26.6781 6.66212V5.12879H35.3244V9.41925C35.3244 10.5193 36.0748 11.4972 37.1891 11.8483C37.999 12.1047 38.8058 12.4174 39.5868 12.7796C40.6405 13.2686 41.9107 13.0737 42.743 12.2957L45.9871 9.26049L52.1011 14.9804L48.8563 18.016C48.0245 18.794 47.8164 19.9824 48.3393 20.9688C48.7263 21.6976 49.0607 22.4521 49.3346 23.2106C49.7103 24.2534 50.7557 24.9552 51.9318 24.9552H56.5173V33.0448Z" fill="black"/>
</svg>
